<svg xmlns="http://www.w3.org/2000/svg" width="16" height="16.003" viewBox="0 0 16 16.003"><defs><style>.a{fill:#cbcbcb;}</style></defs><path class="a" d="M-64.535,6168.191c0,.429.032.86-.006,1.286a2.42,2.42,0,0,1-2.3,2.3,17.748,17.748,0,0,1-2.588,0,2.4,2.4,0,0,1-2.3-2.317,18.569,18.569,0,0,1,0-2.569,2.389,2.389,0,0,1,2.3-2.3,19.269,19.269,0,0,1,2.665.013,2.442,2.442,0,0,1,2.234,2.449c.005.377,0,.753,0,1.13Zm-3.606-2.36v-.007c-.37,0-.74-.008-1.11,0a1.234,1.234,0,0,0-1.251,1.248q-.021,1.11,0,2.22a1.229,1.229,0,0,0,1.238,1.261q1.119.025,2.239,0a1.223,1.223,0,0,0,1.25-1.227c.02-.759.018-1.519,0-2.278a1.206,1.206,0,0,0-1.158-1.213C-67.335,6165.808-67.739,6165.831-68.141,6165.831Zm5.128,2.351c0-.429-.034-.86.006-1.284a2.416,2.416,0,0,1,2.306-2.3,17.815,17.815,0,0,1,2.588,0,2.379,2.379,0,0,1,2.29,2.284,17.948,17.948,0,0,1,0,2.608,2.381,2.381,0,0,1-2.289,2.287,18.384,18.384,0,0,1-2.685-.012,2.439,2.439,0,0,1-2.226-2.437c-.007-.383,0-.766,0-1.149Zm1.253,0h-.018c0,.363-.005.727,0,1.09a1.241,1.241,0,0,0,1.261,1.279c.74.014,1.48.012,2.219,0a1.224,1.224,0,0,0,1.247-1.23c.018-.752.018-1.506,0-2.258a1.192,1.192,0,0,0-1.142-1.226c-.829-.032-1.661-.027-2.49.006a1.148,1.148,0,0,0-1.073,1.055C-61.788,6167.328-61.76,6167.758-61.76,6168.186Zm-2.776,8.744c0,.429.033.86-.006,1.286a2.42,2.42,0,0,1-2.307,2.3,18.638,18.638,0,0,1-2.569,0,2.391,2.391,0,0,1-2.311-2.308,18.048,18.048,0,0,1,0-2.569,2.392,2.392,0,0,1,2.311-2.308,18.969,18.969,0,0,1,2.665.014,2.442,2.442,0,0,1,2.225,2.438c.007.383,0,.766,0,1.149Zm-3.591-2.377c-.357,0-.714,0-1.071,0a1.247,1.247,0,0,0-1.306,1.294c-.009.714-.007,1.429,0,2.143a1.245,1.245,0,0,0,1.3,1.3q1.061.01,2.122,0a1.248,1.248,0,0,0,1.307-1.313q.007-1.052,0-2.1a1.254,1.254,0,0,0-1.3-1.317C-67.426,6174.55-67.777,6174.554-68.127,6174.553Zm12.35,2.376a12.578,12.578,0,0,1-.079,1.571,2.362,2.362,0,0,1-2.183,2,19,19,0,0,1-2.7,0A2.372,2.372,0,0,1-63,6178.23a17.861,17.861,0,0,1,0-2.608,2.387,2.387,0,0,1,2.306-2.292,18.606,18.606,0,0,1,2.665.012,2.445,2.445,0,0,1,2.23,2.474c0,.371,0,.741,0,1.112Zm-1.265.005c0-.357,0-.713,0-1.071a1.253,1.253,0,0,0-1.313-1.309q-1.042-.006-2.083,0a1.259,1.259,0,0,0-1.339,1.343c0,.682,0,1.363,0,2.044a1.257,1.257,0,0,0,1.333,1.348q1.042,0,2.083,0a1.255,1.255,0,0,0,1.319-1.322C-57.042,6177.623-57.043,6177.278-57.043,6176.934Z" transform="translate(71.775 -6164.554)"/></svg>