<svg xmlns="http://www.w3.org/2000/svg" width="16.337" height="16.672" viewBox="0 0 16.337 16.672"><defs><style>.a{fill:#cbcbcb;}</style></defs><path class="a" d="M2936.894,745.379a.678.678,0,0,1-.644-.459.986.986,0,0,1-.048-.312c0-.3,0-.59,0-.9,0-.121,0-.244,0-.37v-.095h-.095c-.153,0-.3,0-.45,0s-.285,0-.426,0c-.192,0-.35,0-.5-.011a7.006,7.006,0,0,1-4.047-1.516,7.125,7.125,0,0,1-2.731-4.641,7.26,7.26,0,0,1,5.632-8.189,9.018,9.018,0,0,1,1.5-.166c.3-.013.61-.019.952-.019.305,0,.627,0,1.012.015a7.159,7.159,0,0,1,5.57,2.751,6.971,6.971,0,0,1,1.5,3.409,7.3,7.3,0,0,1-3.972,7.625,1.7,1.7,0,0,0-.438.316c-.432.435-.867.88-1.288,1.31-.326.333-.662.678-1,1.015A.747.747,0,0,1,2936.894,745.379Zm-.809-3.283h.315a.916.916,0,0,1,.956.943c0,.055,0,.111,0,.166,0,.026,0,.053,0,.079v.052l.178.113.052-.077c.01-.014.019-.03.028-.045a.409.409,0,0,1,.046-.066l.311-.321c.324-.336.659-.683,1-1.013a3.3,3.3,0,0,1,.506-.376l.054-.035c.141-.092.292-.18.438-.265a5.392,5.392,0,0,0,.816-.544,5.9,5.9,0,0,0,2.069-6.215,6.086,6.086,0,0,0-5.958-4.627l-.466,0c-.182,0-.371,0-.556,0-.271,0-.5.005-.7.016a8.136,8.136,0,0,0-1.5.186,6.1,6.1,0,0,0-4.617,5.411,6.107,6.107,0,0,0,5.964,6.623c.2,0,.4,0,.556,0Zm-.065-4.983a.935.935,0,1,0-.919-.947A.934.934,0,0,0,2936.02,737.114Zm-4.509-.943a.937.937,0,1,0,.939-.927A.935.935,0,0,0,2931.51,736.17Zm7.176.006a.937.937,0,0,0,1.875.012.937.937,0,1,0-1.875-.012Z" transform="translate(-2927.865 -728.707)"/></svg>