<svg xmlns="http://www.w3.org/2000/svg" width="88.958" height="65.235" viewBox="0 0 88.958 65.235"><defs><style>.a{fill:#0c4b9b;}</style></defs><path class="a" d="M2042.705,2125.838q-18.3,0-36.6,0a7.623,7.623,0,0,1-7.879-7.879q-.006-24.691,0-49.381a7.62,7.62,0,0,1,7.973-7.971q36.642,0,73.285,0a7.622,7.622,0,0,1,7.694,7.692q.01,24.969,0,49.937a7.624,7.624,0,0,1-7.6,7.6Q2061.142,2125.846,2042.705,2125.838Zm35.42-5.97-22.756-31.409c-.338.225-.6.387-.842.563-2.185,1.559-4.362,3.128-6.553,4.679a7.3,7.3,0,0,1-8.948-.007q-2.674-1.909-5.344-3.823c-1.023-.73-2.051-1.454-3.1-2.2l-23.3,32.2Zm-66.7-53.284c.355.28.581.473.821.644q14.915,10.64,29.833,21.275c1.319.94,1.574.941,2.862.022q14.834-10.594,29.667-21.189c.287-.2.562-.423.994-.751Zm14.3,17.6-21.512-15.37v45.088Zm55.5-14.235-21.007,15.007,21.007,29Z" transform="translate(-1998.226 -2060.605)"/></svg>