<svg xmlns="http://www.w3.org/2000/svg" width="110.932" height="110.91" viewBox="0 0 110.932 110.91"><path d="M59.544,14.093c14.813,0,16.552.066,22.407.33a30.259,30.259,0,0,1,10.3,1.915,17.208,17.208,0,0,1,6.383,4.138,16.94,16.94,0,0,1,4.138,6.383,30.826,30.826,0,0,1,1.915,10.3c.264,5.855.33,7.594.33,22.407s-.066,16.552-.33,22.407a30.259,30.259,0,0,1-1.915,10.3,17.208,17.208,0,0,1-4.138,6.383,16.94,16.94,0,0,1-6.383,4.138,30.826,30.826,0,0,1-10.3,1.915c-5.855.264-7.594.33-22.407.33s-16.552-.066-22.407-.33a30.259,30.259,0,0,1-10.3-1.915,17.208,17.208,0,0,1-6.383-4.138,16.94,16.94,0,0,1-4.138-6.383,30.825,30.825,0,0,1-1.915-10.3c-.264-5.855-.33-7.594-.33-22.407s.066-16.552.33-22.407a30.259,30.259,0,0,1,1.915-10.3,17.208,17.208,0,0,1,4.138-6.383,16.94,16.94,0,0,1,6.383-4.138,30.825,30.825,0,0,1,10.3-1.915c5.855-.286,7.594-.33,22.407-.33m0-9.993c-15.055,0-16.948.066-22.869.33A40.641,40.641,0,0,0,23.227,7.005,27.025,27.025,0,0,0,13.41,13.41a27.5,27.5,0,0,0-6.405,9.817A40.667,40.667,0,0,0,4.43,36.7c-.264,5.9-.33,7.792-.33,22.847s.066,16.948.33,22.869a40.907,40.907,0,0,0,2.575,13.47A27.025,27.025,0,0,0,13.41,105.7a27.5,27.5,0,0,0,9.817,6.4A40.667,40.667,0,0,0,36.7,114.68c5.921.264,7.792.33,22.869.33s16.948-.066,22.869-.33a40.907,40.907,0,0,0,13.47-2.575,27.026,27.026,0,0,0,9.817-6.4,27.5,27.5,0,0,0,6.405-9.817,40.667,40.667,0,0,0,2.575-13.47c.264-5.921.33-7.792.33-22.869s-.066-16.948-.33-22.869a40.907,40.907,0,0,0-2.575-13.47,27.026,27.026,0,0,0-6.405-9.817,27.5,27.5,0,0,0-9.817-6.405,40.667,40.667,0,0,0-13.47-2.575C76.492,4.166,74.6,4.1,59.544,4.1Zm0,26.963A28.481,28.481,0,1,0,88.025,59.544,28.486,28.486,0,0,0,59.544,31.063Zm0,46.97A18.489,18.489,0,1,1,78.033,59.544,18.486,18.486,0,0,1,59.544,78.033Zm29.6-54.74a6.647,6.647,0,1,0,6.647,6.647A6.641,6.641,0,0,0,89.148,23.293Z" transform="translate(-4.1 -4.1)" fill="#322a51"/></svg>