<svg xmlns="http://www.w3.org/2000/svg" width="101.62" height="106.032" viewBox="0 0 101.62 106.032"><path d="M16.3,17.843,41.6,25.069v79.878L13.874,97.025a4.417,4.417,0,0,1-3.2-4.247V22.091A4.419,4.419,0,0,1,16.3,17.843ZM81.357,55.981C73.3,48.656,59.266,33.7,59.266,23.194,59.266,10.622,69.383,0,81.357,0s22.091,10.622,22.091,23.194C103.448,33.682,89.409,48.648,81.357,55.981Zm0-25.058a8.837,8.837,0,1,0-8.837-8.837,8.837,8.837,0,0,0,8.837,8.837Zm30.236-2.295C108,43.427,91.38,58.978,85.783,63.88V99.9l20.875,5.964a4.419,4.419,0,0,0,5.633-4.247V30.925a4.364,4.364,0,0,0-.7-2.295ZM50.521,25.044l-.089.025v79.878L76.94,97.373V63.882C70.884,58.582,51.95,40.83,50.521,25.044Z" transform="translate(-10.67)" fill="#322a51"/></svg>