<svg xmlns="http://www.w3.org/2000/svg" width="79.898" height="100.325" viewBox="0 0 79.898 100.325"><defs><style>.a{fill:#0c4b9b;}</style></defs><path class="a" d="M5485.356,1117.365a39.932,39.932,0,0,0-77.807,17.894c1.33,6.349,3.98,12.537,8.343,19.476a119.551,119.551,0,0,0,18.624,22.449c2.216,2.136,4.529,4.209,6.764,6.213,1,.9,2.038,1.826,3.046,2.743l1.747,1.59,1.9-1.4c.128-.1.239-.176.338-.247.218-.158.406-.295.61-.46a146.437,146.437,0,0,0,20.7-20.409c6.383-7.73,10.73-14.735,13.691-22.046A40.315,40.315,0,0,0,5485.356,1117.365ZM5477.981,1141c-2.735,6.75-6.8,13.278-12.794,20.541a140.232,140.232,0,0,1-18.794,18.7l-1.27-1.139c-2.2-1.97-4.472-4.007-6.611-6.071a113.955,113.955,0,0,1-17.746-21.367c-3.987-6.342-6.4-11.933-7.583-17.592a34.042,34.042,0,0,1,25.753-40.052,35.4,35.4,0,0,1,7.738-.861,34.133,34.133,0,0,1,33.111,25.657C5481.681,1126.066,5481.09,1133.322,5477.981,1141Zm-31.264-38.32h-.057a24.762,24.762,0,0,0-24.681,24.645,24.657,24.657,0,0,0,24.593,24.678h.071a24.662,24.662,0,0,0,.073-49.323ZM5460,1140.73a18.793,18.793,0,0,1-13.352,5.517h-.056a18.824,18.824,0,0,1-13.392-5.609,18.615,18.615,0,0,1-5.458-13.282,18.994,18.994,0,0,1,18.922-18.915h.045A18.9,18.9,0,0,1,5460,1140.73Z" transform="translate(-5406.71 -1087.405)"/></svg>