<svg xmlns="http://www.w3.org/2000/svg" width="61.372" height="111.585" viewBox="0 0 61.372 111.585"><path d="M115.2,22.317h61.372V89.268H115.2Zm61.372-8.369v2.79H115.2v-2.79A13.948,13.948,0,0,1,129.148,0h33.476A13.948,13.948,0,0,1,176.572,13.948ZM151.465,8.369a2.79,2.79,0,0,0-2.79-2.79H143.1a2.79,2.79,0,1,0,0,5.579h5.579a2.79,2.79,0,0,0,2.79-2.79ZM115.2,94.848h61.372v2.79a13.948,13.948,0,0,1-13.948,13.948H129.148A13.948,13.948,0,0,1,115.2,97.637Zm27.9,8.369a2.79,2.79,0,1,0,2.79-2.79A2.79,2.79,0,0,0,143.1,103.217Z" transform="translate(-115.2)" fill="#322a51"/></svg>