<svg xmlns="http://www.w3.org/2000/svg" width="82.585" height="86.802" viewBox="0 0 82.585 86.802"><defs><style>.a{fill:#0c4b9b;}</style></defs><path class="a" d="M3520.141,1209.336a124.955,124.955,0,0,0-7.7-10.93c-3.805-4.641-10.212-6.238-15.75-2.042-1.32,1-2.71,1.912-4.116,2.9a87.8,87.8,0,0,1-13.4-19.135c1.614-1.13,3.191-2.227,4.76-3.334a10.348,10.348,0,0,0,4.363-6.326,12.434,12.434,0,0,0-2.146-9.881c-1.967-2.963-4.028-5.865-6.118-8.742a16.565,16.565,0,0,0-2.483-2.691,10.829,10.829,0,0,0-14.06-.731c-2.076,1.457-4.121,2.963-6.24,4.354a10.547,10.547,0,0,0-4.591,6.376,29.753,29.753,0,0,0-.88,5.677,38.975,38.975,0,0,0,1.5,11.926,79.572,79.572,0,0,0,10.086,22.662c6.4,10.106,14.158,18.969,24.112,25.741,4.39,2.987,9.052,5.439,14.424,6.13a11.2,11.2,0,0,0,8.064-1.523c2.576-1.76,5.159-3.514,7.663-5.374a10.107,10.107,0,0,0,4.148-10.764A12.375,12.375,0,0,0,3520.141,1209.336Zm-5.315,10.774c-2.54,1.858-5.107,3.683-7.726,5.428-1.7,1.13-3.628.927-5.509.542a31.821,31.821,0,0,1-11.344-5.244,76.593,76.593,0,0,1-18.912-18.745,80.291,80.291,0,0,1-12.887-25.715,36.225,36.225,0,0,1-1.6-10.854,28.461,28.461,0,0,1,.836-5.409,5.024,5.024,0,0,1,2.264-3c2.2-1.485,4.352-3.033,6.528-4.549,2.736-1.906,5.1-1.834,7.64.325a12.418,12.418,0,0,1,1.982,2.2c1.907,2.648,3.77,5.33,5.625,8.016a9.221,9.221,0,0,1,1.711,4.341,5.283,5.283,0,0,1-2.421,5.179l-7.523,5.262c-.258.181-.511.371-.9.654,1.625,3,3.144,6.015,4.856,8.918a92.7,92.7,0,0,0,13.649,17.677c.631.646,1.019.734,1.774.177,2.32-1.712,4.716-3.324,7.076-4.983a5.632,5.632,0,0,1,7.525.264,11.65,11.65,0,0,1,1.956,2.106c1.958,2.72,3.868,5.474,5.772,8.233a9.049,9.049,0,0,1,1.7,4.524A5,5,0,0,1,3514.825,1220.11Zm18.838-29.86-4.93-.866a34.52,34.52,0,0,0-27.894-39.854c.284-1.654.562-3.273.84-4.891C3521.926,1147.532,3537.806,1168.274,3533.664,1190.25Zm-37.441-26.646c.3-1.682.579-3.28.86-4.876,13.64,1.849,24.641,15.965,21.782,31.042l-4.936-.874a21.922,21.922,0,0,0-17.707-25.292Z" transform="translate(-3451.74 -1144.639)"/></svg>