<svg xmlns="http://www.w3.org/2000/svg" width="125.585" height="125.585" viewBox="0 0 125.585 125.585"><path d="M0,62.793A62.793,62.793,0,1,0,62.793,0,62.793,62.793,0,0,0,0,62.793Zm51.281,28.78,1.068-16.006h0L81.465,49.29c1.278-1.134-.279-1.687-1.975-.659L43.555,71.3,28.034,66.457c-3.352-1.026-3.376-3.33.752-4.986L89.271,38.149c2.763-1.254,5.429.664,4.374,4.892l-10.3,48.54c-.719,3.449-2.8,4.274-5.691,2.681L61.963,82.669,54.42,90l-.071.069A3.931,3.931,0,0,1,51.281,91.573Z" fill="#322a51" fill-rule="evenodd"/></svg>