<svg xmlns="http://www.w3.org/2000/svg" width="19" height="19.003" viewBox="0 0 19 19.003"><defs><style>.a{fill:#cbcbcb;}</style></defs><path class="a" d="M7411.322,2549.4c-.321-.049-.646-.085-.965-.147a9.381,9.381,0,0,1-6.677-4.822,9.019,9.019,0,0,1-1.153-4.543.776.776,0,0,1,.8-.79.8.8,0,0,1,.8.8,7.316,7.316,0,0,0,.707,3.265,7.7,7.7,0,0,0,5.895,4.526,7.9,7.9,0,0,0,3.009-15.512,12.142,12.142,0,0,0-1.688-.182.846.846,0,0,1-.823-.75.813.813,0,0,1,.6-.829.641.641,0,0,1,.163-.022,9.5,9.5,0,0,1,9.323,7.45c.09.421.131.853.2,1.279a.306.306,0,0,0,.029.066v1.41c-.028.206-.053.413-.083.619a9.541,9.541,0,0,1-7.748,8.031c-.319.058-.643.1-.965.147Zm1.5-14.92a1.807,1.807,0,0,0-.017-.277.8.8,0,0,0-1.575.232c0,1.589,0,3.179,0,4.769a.277.277,0,0,1-.181.295c-.842.412-1.679.834-2.517,1.255a.8.8,0,1,0,.712,1.425c1.011-.5,2.018-1.014,3.031-1.51a.887.887,0,0,0,.548-.881c-.009-.885,0-1.769,0-2.653S7412.825,2535.365,7412.823,2534.481Zm-4.926-2.635a.808.808,0,0,0,.793.81.82.82,0,0,0,.8-.808.794.794,0,0,0-.809-.79A.782.782,0,0,0,7407.9,2531.845Zm-3.906,5.521a.816.816,0,0,0,.791-.8.8.8,0,1,0-.791.8Zm1.882-2.83a.8.8,0,0,0,.8-.79.792.792,0,0,0-.789-.793.792.792,0,1,0-.008,1.583Z" transform="translate(-7402.527 -2530.397)"/></svg>