<svg xmlns="http://www.w3.org/2000/svg" width="40" height="39.684" viewBox="0 0 40 39.684"><path d="M38.775,36.6a20.556,20.556,0,0,0-9.4-11.248.447.447,0,0,0-.6.048,13.268,13.268,0,0,1-8.444,3.232A13.194,13.194,0,0,1,11.26,25.42a.5.5,0,0,0-.676-.056A19.957,19.957,0,0,0,5.7,29.188,20.934,20.934,0,0,0,.236,40.608C.148,41.184.08,41.76,0,42.34v1.332q19.764,0,39.523,0c.368,0,.488-.068.476-.46a21.437,21.437,0,0,0-1.224-6.62Zm-18.96-10.42A11.093,11.093,0,1,0,8.908,15.216,11.029,11.029,0,0,0,19.816,26.176Z" transform="translate(0 -3.992)" fill="#322a51"/></svg>