<svg xmlns="http://www.w3.org/2000/svg" width="18" height="13.028" viewBox="0 0 18 13.028"><defs><style>.a{fill:#cbcbcb;}</style></defs><path class="a" d="M5701.046,3051.094c-.782-.778-1.575-1.57-2.342-2.337q-.848-.849-1.7-1.7a6.3,6.3,0,0,0-3.762-1.858,7.665,7.665,0,0,0-.909-.056,6.262,6.262,0,0,0-4.491,1.861c-1.029,1-2.058,2.036-3.053,3.037q-.6.6-1.2,1.2a.513.513,0,0,0,0,.81l1.074,1.08c1.032,1.039,2.1,2.112,3.157,3.158a6.362,6.362,0,0,0,3.95,1.842.659.659,0,0,1,.154.035h.958l.258-.043c.2-.033.4-.066.6-.108a6.291,6.291,0,0,0,3.186-1.7c1.472-1.454,2.924-2.914,4.273-4.275a1.059,1.059,0,0,0,.147-.231c.015-.028.029-.056.046-.084v-.174A1.392,1.392,0,0,0,5701.046,3051.094Zm-1.179.817-.718.718c-.536.536-1.091,1.09-1.637,1.631-.149.149-.3.3-.447.452-.384.391-.78.8-1.21,1.158a5.419,5.419,0,0,1-7.2-.227c-.874-.836-1.74-1.705-2.579-2.546-.369-.37-.75-.752-1.126-1.126a.732.732,0,0,1-.064-.073.184.184,0,0,0-.018-.022l-.189-.23.2-.219.042-.045c.033-.036.066-.073.1-.11l1.25-1.241q1.11-1.1,2.218-2.206a5.356,5.356,0,0,1,3.741-1.623l.172,0a5.179,5.179,0,0,1,3.717,1.483c.876.847,1.749,1.724,2.592,2.574.356.359.725.73,1.088,1.094a.673.673,0,0,1,.064.074l.024.03.2.24Zm-7.482-3.335a3.084,3.084,0,1,0,0,6.168h0a3.084,3.084,0,0,0,0-6.168Zm1.443,4.536a2.021,2.021,0,0,1-1.437.592h-.022a2.05,2.05,0,0,1-1.456-.621,2,2,0,0,1-.578-1.439,2.057,2.057,0,0,1,2.044-2.028h.021a2.049,2.049,0,0,1,1.428,3.5Z" transform="translate(-5683.393 -3045.145)"/></svg>