<svg xmlns="http://www.w3.org/2000/svg" width="116.712" height="117.273" viewBox="0 0 116.712 117.273"><g transform="translate(125.434 126.036)"><g transform="translate(-125.434 -126.036)"><path d="M100.311,17.042A58.126,58.126,0,0,0,8.846,87.16L.6,117.273l30.806-8.081a58.052,58.052,0,0,0,27.77,7.073H59.2a58.138,58.138,0,0,0,41.108-99.222ZM35.6,60.223c-.726-.969-5.929-7.873-5.929-15.02a16.284,16.284,0,0,1,5.082-12.113,5.336,5.336,0,0,1,3.873-1.816c.968,0,1.938.009,2.783.051.891.046,2.089-.339,3.267,2.493,1.211,2.907,4.114,10.056,4.477,10.781a2.673,2.673,0,0,1,.121,2.544,9.914,9.914,0,0,1-1.452,2.422c-.726.848-1.525,1.893-2.179,2.544-.727.724-1.484,1.51-.637,2.963A43.74,43.74,0,0,0,53.087,65.13a39.65,39.65,0,0,0,11.677,7.207c1.452.727,2.3.606,3.146-.364s3.63-4.24,4.6-5.693,1.936-1.211,3.267-.727,8.47,4,9.921,4.724,2.42,1.091,2.783,1.7.364,3.513-.847,6.9-7.012,6.488-9.8,6.9a19.889,19.889,0,0,1-9.146-.576,83.383,83.383,0,0,1-8.278-3.058C45.842,75.858,36.33,61.192,35.6,60.223Z" transform="translate(-0.602)" fill="#322a51" fill-rule="evenodd"/></g></g></svg>